<?xml version="1.0" encoding="UTF-8" standalone="no"?>
<!-- Created with Inkscape (http://www.inkscape.org/) -->

<svg
   xmlns:dc="http://purl.org/dc/elements/1.1/"
   xmlns:cc="http://creativecommons.org/ns#"
   xmlns:rdf="http://www.w3.org/1999/02/22-rdf-syntax-ns#"
   xmlns:svg="http://www.w3.org/2000/svg"
   xmlns="http://www.w3.org/2000/svg"
   xmlns:sodipodi="http://sodipodi.sourceforge.net/DTD/sodipodi-0.dtd"
   xmlns:inkscape="http://www.inkscape.org/namespaces/inkscape"
   width="168.61366mm"
   height="120.43023mm"
   viewBox="0 0 168.61366 120.43023"
   version="1.1"
   id="svg8"
   inkscape:version="0.92.4 (5da689c313, 2019-01-14)"
   sodipodi:docname="Supermarket_p2.svg">
  <defs
     id="defs2">
    <clipPath
       id="clipPath841"
       clipPathUnits="userSpaceOnUse">
      <path
         style="clip-rule:evenodd"
         inkscape:connector-curvature="0"
         id="path839"
         d="m 300.48,29.4 h 0.24 v 12.48 h -0.24 z" />
    </clipPath>
    <clipPath
       id="clipPath2424"
       clipPathUnits="userSpaceOnUse">
      <path
         style="clip-rule:evenodd"
         inkscape:connector-curvature="0"
         id="path2422"
         d="m 300.48,29.4 h 0.24 v 12.48 h -0.24 z" />
    </clipPath>
  </defs>
  <sodipodi:namedview
     id="base"
     pagecolor="#ffffff"
     bordercolor="#666666"
     borderopacity="1.0"
     inkscape:pageopacity="0.0"
     inkscape:pageshadow="2"
     inkscape:zoom="1.979899"
     inkscape:cx="397.71869"
     inkscape:cy="153.38337"
     inkscape:document-units="mm"
     inkscape:current-layer="layer1"
     showgrid="false"
     inkscape:window-width="3840"
     inkscape:window-height="2050"
     inkscape:window-x="-12"
     inkscape:window-y="-12"
     inkscape:window-maximized="1" />
  <metadata
     id="metadata5">
    <rdf:RDF>
      <cc:Work
         rdf:about="">
        <dc:format>image/svg+xml</dc:format>
        <dc:type
           rdf:resource="http://purl.org/dc/dcmitype/StillImage" />
        <dc:title></dc:title>
      </cc:Work>
    </rdf:RDF>
  </metadata>
  <g
     inkscape:label="Layer 1"
     inkscape:groupmode="layer"
     id="layer1"
     transform="translate(81.636407,90.905441)">
    <g
       id="g2410"
       transform="matrix(0.35277777,0,0,-0.35277777,-101.61774,184.93045)" />
    <g
       id="g2418"
       transform="matrix(0.35277777,0,0,-0.35277777,-101.61774,184.93045)">
      <g
         clip-path="url(#clipPath2424)"
         id="g2420" />
    </g>
    <g
       id="g2426"
       transform="matrix(0.35277777,0,0,-0.35277777,-101.61774,184.93045)">
      <text
         id="text2430"
         style="font-variant:normal;font-weight:bold;font-size:14.03999996px;font-family:Cambria;-inkscape-font-specification:Cambria-Bold;writing-mode:lr-tb;fill:#4f81bd;fill-opacity:1;fill-rule:nonzero;stroke:none"
         transform="matrix(1,0,0,-1,56.64,772.08)">
        <tspan
           id="tspan2428"
           sodipodi:role="line"
           y="0"
           x="0 8.1572399 15.48612 22.92732 35.408878 43.804798 48.12912">Exemplu</tspan>
      </text>
    </g>
    <g
       id="g2432"
       transform="matrix(0.35277777,0,0,-0.35277777,-101.61774,184.93045)" />
    <g
       id="g2434"
       transform="matrix(0.35277777,0,0,-0.35277777,-101.61774,184.93045)">
      <text
         id="text2438"
         style="font-variant:normal;font-weight:bold;font-size:12px;font-family:'Times New Roman';-inkscape-font-specification:TimesNewRomanPS-BoldMT;writing-mode:lr-tb;fill:#000000;fill-opacity:1;fill-rule:nonzero;stroke:none"
         transform="matrix(1,0,0,-1,62.04,749.52)">
        <tspan
           id="tspan2436"
           sodipodi:role="line"
           y="0"
           x="0 4.6680002 11.376 15.336 20.615999 26.615999 31.896">Intrare</tspan>
      </text>
    </g>
    <g
       id="g2440"
       transform="matrix(0.35277777,0,0,-0.35277777,-101.61774,184.93045)" />
    <g
       id="g2442"
       transform="matrix(0.35277777,0,0,-0.35277777,-101.61774,184.93045)">
      <path
         inkscape:connector-curvature="0"
         id="path2444"
         style="fill:#000000;fill-opacity:1;fill-rule:nonzero;stroke:none"
         d="m 56.64,760.68 h 0.48 v 0.48 h -0.48 z" />
    </g>
    <g
       id="g2446"
       transform="matrix(0.35277777,0,0,-0.35277777,-101.61774,184.93045)">
      <path
         inkscape:connector-curvature="0"
         id="path2448"
         style="fill:#000000;fill-opacity:1;fill-rule:nonzero;stroke:none"
         d="m 56.64,760.68 h 0.48 v 0.48 h -0.48 z" />
    </g>
    <g
       id="g2450"
       transform="matrix(0.35277777,0,0,-0.35277777,-101.61774,184.93045)">
      <path
         inkscape:connector-curvature="0"
         id="path2452"
         style="fill:#000000;fill-opacity:1;fill-rule:nonzero;stroke:none"
         d="m 57.12,760.68 h 477 v 0.48 h -477 z" />
    </g>
    <g
       id="g2454"
       transform="matrix(0.35277777,0,0,-0.35277777,-101.61774,184.93045)">
      <path
         inkscape:connector-curvature="0"
         id="path2456"
         style="fill:#000000;fill-opacity:1;fill-rule:nonzero;stroke:none"
         d="m 534.12,760.68 h 0.48 v 0.48 h -0.48 z" />
    </g>
    <g
       id="g2458"
       transform="matrix(0.35277777,0,0,-0.35277777,-101.61774,184.93045)">
      <path
         inkscape:connector-curvature="0"
         id="path2460"
         style="fill:#000000;fill-opacity:1;fill-rule:nonzero;stroke:none"
         d="m 534.12,760.68 h 0.48 v 0.48 h -0.48 z" />
    </g>
    <g
       id="g2462"
       transform="matrix(0.35277777,0,0,-0.35277777,-101.61774,184.93045)">
      <path
         inkscape:connector-curvature="0"
         id="path2464"
         style="fill:#000000;fill-opacity:1;fill-rule:nonzero;stroke:none"
         d="m 56.64,745.44 h 0.48 v 15.24 h -0.48 z" />
    </g>
    <g
       id="g2466"
       transform="matrix(0.35277777,0,0,-0.35277777,-101.61774,184.93045)">
      <path
         inkscape:connector-curvature="0"
         id="path2468"
         style="fill:#000000;fill-opacity:1;fill-rule:nonzero;stroke:none"
         d="m 534.12,745.44 h 0.48 v 15.24 h -0.48 z" />
    </g>
    <g
       id="g2470"
       transform="matrix(0.35277777,0,0,-0.35277777,-101.61774,184.93045)">
      <text
         id="text2474"
         style="font-variant:normal;font-weight:normal;font-size:11.03989983px;font-family:'Courier New';-inkscape-font-specification:CourierNewPSMT;writing-mode:lr-tb;fill:#000000;fill-opacity:1;fill-rule:nonzero;stroke:none"
         transform="matrix(1,0,0,-1,62.04,735.6)">
        <tspan
           id="tspan2472"
           sodipodi:role="line"
           y="0"
           x="0 6.60186 13.20372 19.80558">10 4</tspan>
      </text>
    </g>
    <g
       id="g2476"
       transform="matrix(0.35277777,0,0,-0.35277777,-101.61774,184.93045)" />
    <g
       id="g2478"
       transform="matrix(0.35277777,0,0,-0.35277777,-101.61774,184.93045)">
      <text
         id="text2482"
         style="font-variant:normal;font-weight:normal;font-size:11.03989983px;font-family:'Courier New';-inkscape-font-specification:CourierNewPSMT;writing-mode:lr-tb;fill:#000000;fill-opacity:1;fill-rule:nonzero;stroke:none"
         transform="matrix(1,0,0,-1,62.04,720.72)">
        <tspan
           id="tspan2480"
           sodipodi:role="line"
           y="0"
           x="0 6.60186 13.20372 19.80558 26.40744 33.0093 39.61116 46.21302 52.81488 59.41674 66.0186 72.620461 79.222321 85.824181 92.426041 99.027901">98ff65cd p 100.5</tspan>
      </text>
    </g>
    <g
       id="g2484"
       transform="matrix(0.35277777,0,0,-0.35277777,-101.61774,184.93045)" />
    <g
       id="g2486"
       transform="matrix(0.35277777,0,0,-0.35277777,-101.61774,184.93045)">
      <text
         id="text2490"
         style="font-variant:normal;font-weight:normal;font-size:11.03989983px;font-family:'Courier New';-inkscape-font-specification:CourierNewPSMT;writing-mode:lr-tb;fill:#000000;fill-opacity:1;fill-rule:nonzero;stroke:none"
         transform="matrix(1,0,0,-1,62.04,705.72)">
        <tspan
           id="tspan2488"
           sodipodi:role="line"
           y="0"
           x="0 6.60186 13.20372 19.80558 26.40744 33.0093 39.61116 46.21302 52.81488 59.41674 66.0186 72.620461 79.222321">00000001 c 10</tspan>
      </text>
    </g>
    <g
       id="g2492"
       transform="matrix(0.35277777,0,0,-0.35277777,-101.61774,184.93045)" />
    <g
       id="g2494"
       transform="matrix(0.35277777,0,0,-0.35277777,-101.61774,184.93045)">
      <text
         id="text2498"
         style="font-variant:normal;font-weight:normal;font-size:11.03989983px;font-family:'Courier New';-inkscape-font-specification:CourierNewPSMT;writing-mode:lr-tb;fill:#000000;fill-opacity:1;fill-rule:nonzero;stroke:none"
         transform="matrix(1,0,0,-1,62.04,690.84)">
        <tspan
           id="tspan2496"
           sodipodi:role="line"
           y="0"
           x="0 6.60186 13.20372 19.80558 26.40744 33.0093 39.61116 46.21302 52.81488 59.41674 66.0186 72.620461 79.222321">00000002 c 25</tspan>
      </text>
    </g>
    <g
       id="g2500"
       transform="matrix(0.35277777,0,0,-0.35277777,-101.61774,184.93045)" />
    <g
       id="g2502"
       transform="matrix(0.35277777,0,0,-0.35277777,-101.61774,184.93045)">
      <text
         id="text2506"
         style="font-variant:normal;font-weight:normal;font-size:11.03989983px;font-family:'Courier New';-inkscape-font-specification:CourierNewPSMT;writing-mode:lr-tb;fill:#000000;fill-opacity:1;fill-rule:nonzero;stroke:none"
         transform="matrix(1,0,0,-1,62.04,675.84)">
        <tspan
           id="tspan2504"
           sodipodi:role="line"
           y="0"
           x="0 6.60186 13.20372 19.80558 26.40744 33.0093 39.61116 46.21302 52.81488 59.41674 66.0186 72.620461 79.222321">98ff65ce p 10</tspan>
      </text>
    </g>
    <g
       id="g2508"
       transform="matrix(0.35277777,0,0,-0.35277777,-101.61774,184.93045)" />
    <g
       id="g2510"
       transform="matrix(0.35277777,0,0,-0.35277777,-101.61774,184.93045)">
      <text
         id="text2514"
         style="font-variant:normal;font-weight:normal;font-size:11.03989983px;font-family:'Courier New';-inkscape-font-specification:CourierNewPSMT;writing-mode:lr-tb;fill:#000000;fill-opacity:1;fill-rule:nonzero;stroke:none"
         transform="matrix(1,0,0,-1,62.04,660.84)">
        <tspan
           id="tspan2512"
           sodipodi:role="line"
           y="0"
           x="0 6.60186 13.20372 19.80558 26.40744 33.0093 39.61116 46.21302 52.81488 59.41674 66.0186 72.620461 79.222321 85.824181 92.426041 99.027901 105.62976">98ff65cf p 574.21</tspan>
      </text>
    </g>
    <g
       id="g2516"
       transform="matrix(0.35277777,0,0,-0.35277777,-101.61774,184.93045)" />
    <g
       id="g2518"
       transform="matrix(0.35277777,0,0,-0.35277777,-101.61774,184.93045)">
      <text
         id="text2522"
         style="font-variant:normal;font-weight:normal;font-size:11.03989983px;font-family:'Courier New';-inkscape-font-specification:CourierNewPSMT;writing-mode:lr-tb;fill:#000000;fill-opacity:1;fill-rule:nonzero;stroke:none"
         transform="matrix(1,0,0,-1,62.04,645.96)">
        <tspan
           id="tspan2520"
           sodipodi:role="line"
           y="0"
           x="0 6.60186 13.20372 19.80558 26.40744 33.0093 39.61116 46.21302 52.81488 59.41674 66.0186 72.620461 79.222321 85.824181 92.426041 99.027901">98ff65d0 p 78.34</tspan>
      </text>
    </g>
    <g
       id="g2524"
       transform="matrix(0.35277777,0,0,-0.35277777,-101.61774,184.93045)" />
    <g
       id="g2526"
       transform="matrix(0.35277777,0,0,-0.35277777,-101.61774,184.93045)">
      <text
         id="text2530"
         style="font-variant:normal;font-weight:normal;font-size:11.03989983px;font-family:'Courier New';-inkscape-font-specification:CourierNewPSMT;writing-mode:lr-tb;fill:#000000;fill-opacity:1;fill-rule:nonzero;stroke:none"
         transform="matrix(1,0,0,-1,62.04,630.96)">
        <tspan
           id="tspan2528"
           sodipodi:role="line"
           y="0"
           x="0 6.60186 13.20372 19.80558 26.40744 33.0093 39.61116 46.21302 52.81488 59.41674 66.0186 72.620461 79.222321 85.824181 92.426041 99.027901 105.62976 112.23162">98ff65d1 p 1423.76</tspan>
      </text>
    </g>
    <g
       id="g2532"
       transform="matrix(0.35277777,0,0,-0.35277777,-101.61774,184.93045)" />
    <g
       id="g2534"
       transform="matrix(0.35277777,0,0,-0.35277777,-101.61774,184.93045)">
      <text
         id="text2538"
         style="font-variant:normal;font-weight:normal;font-size:11.03989983px;font-family:'Courier New';-inkscape-font-specification:CourierNewPSMT;writing-mode:lr-tb;fill:#000000;fill-opacity:1;fill-rule:nonzero;stroke:none"
         transform="matrix(1,0,0,-1,62.04,616.08)">
        <tspan
           id="tspan2536"
           sodipodi:role="line"
           y="0"
           x="0 6.60186 13.20372 19.80558 26.40744 33.0093 39.61116 46.21302 52.81488 59.41674 66.0186 72.620461 79.222321 85.824181 92.426041 99.027901 105.62976">98ff65d2 p 123.90</tspan>
      </text>
    </g>
    <g
       id="g2540"
       transform="matrix(0.35277777,0,0,-0.35277777,-101.61774,184.93045)" />
    <g
       id="g2542"
       transform="matrix(0.35277777,0,0,-0.35277777,-101.61774,184.93045)">
      <text
         id="text2546"
         style="font-variant:normal;font-weight:normal;font-size:11.03989983px;font-family:'Courier New';-inkscape-font-specification:CourierNewPSMT;writing-mode:lr-tb;fill:#000000;fill-opacity:1;fill-rule:nonzero;stroke:none"
         transform="matrix(1,0,0,-1,62.04,601.08)">
        <tspan
           id="tspan2544"
           sodipodi:role="line"
           y="0"
           x="0 6.60186 13.20372 19.80558 26.40744 33.0093 39.61116 46.21302 52.81488 59.41674 66.0186 72.620461 79.222321 85.824181 92.426041 99.027901 105.62976">98ff65d3 p 5493.4</tspan>
      </text>
    </g>
    <g
       id="g2548"
       transform="matrix(0.35277777,0,0,-0.35277777,-101.61774,184.93045)" />
    <g
       id="g2550"
       transform="matrix(0.35277777,0,0,-0.35277777,-101.61774,184.93045)">
      <text
         id="text2554"
         style="font-variant:normal;font-weight:normal;font-size:11.03989983px;font-family:'Courier New';-inkscape-font-specification:CourierNewPSMT;writing-mode:lr-tb;fill:#000000;fill-opacity:1;fill-rule:nonzero;stroke:none"
         transform="matrix(1,0,0,-1,62.04,586.08)">
        <tspan
           id="tspan2552"
           sodipodi:role="line"
           y="0"
           x="0 6.60186 13.20372 19.80558 26.40744 33.0093 39.61116 46.21302 52.81488 59.41674 66.0186 72.620461 79.222321 85.824181">98ff65d4 p 400</tspan>
      </text>
    </g>
    <g
       id="g2556"
       transform="matrix(0.35277777,0,0,-0.35277777,-101.61774,184.93045)" />
    <g
       id="g2558"
       transform="matrix(0.35277777,0,0,-0.35277777,-101.61774,184.93045)">
      <text
         id="text2562"
         style="font-variant:normal;font-weight:normal;font-size:11.03989983px;font-family:'Courier New';-inkscape-font-specification:CourierNewPSMT;writing-mode:lr-tb;fill:#000000;fill-opacity:1;fill-rule:nonzero;stroke:none"
         transform="matrix(1,0,0,-1,62.04,571.2)">
        <tspan
           id="tspan2560"
           sodipodi:role="line"
           y="0"
           x="0 6.60186 13.20372 19.80558 26.40744 33.0093 39.61116 46.21302 52.81488 59.41674 66.0186 72.620461 79.222321 85.824181 92.426041 99.027901 105.62976 112.23162 118.83348 125.43534 132.0372 138.63907 145.24092 151.84279 158.44464 165.04651 171.64836 178.25023 184.85208 191.45395 198.0558 204.65767 211.25952 217.86139 224.46324 231.06511">98ff65d4 98ff65d4 00000001 98ff65d1</tspan>
      </text>
    </g>
    <g
       id="g2564"
       transform="matrix(0.35277777,0,0,-0.35277777,-101.61774,184.93045)" />
    <g
       id="g2566"
       transform="matrix(0.35277777,0,0,-0.35277777,-101.61774,184.93045)">
      <path
         inkscape:connector-curvature="0"
         id="path2568"
         style="fill:#000000;fill-opacity:1;fill-rule:nonzero;stroke:none"
         d="m 56.64,744.96 h 0.48 v 0.48 h -0.48 z" />
    </g>
    <g
       id="g2570"
       transform="matrix(0.35277777,0,0,-0.35277777,-101.61774,184.93045)">
      <path
         inkscape:connector-curvature="0"
         id="path2572"
         style="fill:#000000;fill-opacity:1;fill-rule:nonzero;stroke:none"
         d="m 57.12,744.96 h 477 v 0.48 h -477 z" />
    </g>
    <g
       id="g2574"
       transform="matrix(0.35277777,0,0,-0.35277777,-101.61774,184.93045)">
      <path
         inkscape:connector-curvature="0"
         id="path2576"
         style="fill:#000000;fill-opacity:1;fill-rule:nonzero;stroke:none"
         d="m 534.12,744.96 h 0.48 v 0.48 h -0.48 z" />
    </g>
    <g
       id="g2578"
       transform="matrix(0.35277777,0,0,-0.35277777,-101.61774,184.93045)">
      <path
         inkscape:connector-curvature="0"
         id="path2580"
         style="fill:#000000;fill-opacity:1;fill-rule:nonzero;stroke:none"
         d="m 56.64,565.56 h 0.48 v 179.4 h -0.48 z" />
    </g>
    <g
       id="g2582"
       transform="matrix(0.35277777,0,0,-0.35277777,-101.61774,184.93045)">
      <path
         inkscape:connector-curvature="0"
         id="path2584"
         style="fill:#000000;fill-opacity:1;fill-rule:nonzero;stroke:none"
         d="m 534.12,565.56 h 0.48 v 179.4 h -0.48 z" />
    </g>
    <g
       id="g2586"
       transform="matrix(0.35277777,0,0,-0.35277777,-101.61774,184.93045)">
      <text
         id="text2590"
         style="font-variant:normal;font-weight:bold;font-size:12px;font-family:'Times New Roman';-inkscape-font-specification:TimesNewRomanPS-BoldMT;writing-mode:lr-tb;fill:#000000;fill-opacity:1;fill-rule:nonzero;stroke:none"
         transform="matrix(1,0,0,-1,62.04,554.04)">
        <tspan
           id="tspan2588"
           sodipodi:role="line"
           y="0"
           x="0 4.6680002 9.948 14.616 17.964001 23.243999">Ieşire</tspan>
      </text>
    </g>
    <g
       id="g2592"
       transform="matrix(0.35277777,0,0,-0.35277777,-101.61774,184.93045)" />
    <g
       id="g2594"
       transform="matrix(0.35277777,0,0,-0.35277777,-101.61774,184.93045)">
      <path
         inkscape:connector-curvature="0"
         id="path2596"
         style="fill:#000000;fill-opacity:1;fill-rule:nonzero;stroke:none"
         d="m 56.64,565.08 h 0.48 v 0.48 h -0.48 z" />
    </g>
    <g
       id="g2598"
       transform="matrix(0.35277777,0,0,-0.35277777,-101.61774,184.93045)">
      <path
         inkscape:connector-curvature="0"
         id="path2600"
         style="fill:#000000;fill-opacity:1;fill-rule:nonzero;stroke:none"
         d="m 57.12,565.08 h 477 v 0.48 h -477 z" />
    </g>
    <g
       id="g2602"
       transform="matrix(0.35277777,0,0,-0.35277777,-101.61774,184.93045)">
      <path
         inkscape:connector-curvature="0"
         id="path2604"
         style="fill:#000000;fill-opacity:1;fill-rule:nonzero;stroke:none"
         d="m 534.12,565.08 h 0.48 v 0.48 h -0.48 z" />
    </g>
    <g
       id="g2606"
       transform="matrix(0.35277777,0,0,-0.35277777,-101.61774,184.93045)">
      <path
         inkscape:connector-curvature="0"
         id="path2608"
         style="fill:#000000;fill-opacity:1;fill-rule:nonzero;stroke:none"
         d="m 56.64,548.52 h 0.48 v 16.56 h -0.48 z" />
    </g>
    <g
       id="g2610"
       transform="matrix(0.35277777,0,0,-0.35277777,-101.61774,184.93045)">
      <path
         inkscape:connector-curvature="0"
         id="path2612"
         style="fill:#000000;fill-opacity:1;fill-rule:nonzero;stroke:none"
         d="m 534.12,548.52 h 0.48 v 16.56 h -0.48 z" />
    </g>
    <g
       id="g2614"
       transform="matrix(0.35277777,0,0,-0.35277777,-101.61774,184.93045)">
      <text
         id="text2618"
         style="font-variant:normal;font-weight:normal;font-size:11.03989983px;font-family:'Courier New';-inkscape-font-specification:CourierNewPSMT;writing-mode:lr-tb;fill:#000000;fill-opacity:1;fill-rule:nonzero;stroke:none"
         transform="matrix(1,0,0,-1,62.04,538.68)">
        <tspan
           id="tspan2616"
           sodipodi:role="line"
           y="0"
           x="0 6.60186 13.20372 19.80558 26.40744 33.0093 39.61116">2001.38</tspan>
      </text>
    </g>
    <g
       id="g2620"
       transform="matrix(0.35277777,0,0,-0.35277777,-101.61774,184.93045)" />
    <g
       id="g2622"
       transform="matrix(0.35277777,0,0,-0.35277777,-101.61774,184.93045)">
      <path
         inkscape:connector-curvature="0"
         id="path2624"
         style="fill:#000000;fill-opacity:1;fill-rule:nonzero;stroke:none"
         d="m 56.64,548.04 h 0.48 v 0.48 h -0.48 z" />
    </g>
    <g
       id="g2626"
       transform="matrix(0.35277777,0,0,-0.35277777,-101.61774,184.93045)">
      <path
         inkscape:connector-curvature="0"
         id="path2628"
         style="fill:#000000;fill-opacity:1;fill-rule:nonzero;stroke:none"
         d="m 57.12,548.04 h 477 v 0.48 h -477 z" />
    </g>
    <g
       id="g2630"
       transform="matrix(0.35277777,0,0,-0.35277777,-101.61774,184.93045)">
      <path
         inkscape:connector-curvature="0"
         id="path2632"
         style="fill:#000000;fill-opacity:1;fill-rule:nonzero;stroke:none"
         d="m 534.12,548.04 h 0.48 v 0.48 h -0.48 z" />
    </g>
    <g
       id="g2634"
       transform="matrix(0.35277777,0,0,-0.35277777,-101.61774,184.93045)">
      <path
         inkscape:connector-curvature="0"
         id="path2636"
         style="fill:#000000;fill-opacity:1;fill-rule:nonzero;stroke:none"
         d="m 56.64,533.04 h 0.48 v 15 h -0.48 z" />
    </g>
    <g
       id="g2638"
       transform="matrix(0.35277777,0,0,-0.35277777,-101.61774,184.93045)">
      <path
         inkscape:connector-curvature="0"
         id="path2640"
         style="fill:#000000;fill-opacity:1;fill-rule:nonzero;stroke:none"
         d="m 534.12,533.04 h 0.48 v 15 h -0.48 z" />
    </g>
    <g
       id="g2642"
       transform="matrix(0.35277777,0,0,-0.35277777,-101.61774,184.93045)">
      <text
         id="text2646"
         style="font-variant:normal;font-weight:bold;font-size:12px;font-family:'Times New Roman';-inkscape-font-specification:TimesNewRomanPS-BoldMT;writing-mode:lr-tb;fill:#000000;fill-opacity:1;fill-rule:nonzero;stroke:none"
         transform="matrix(1,0,0,-1,62.04,521.4)">
        <tspan
           id="tspan2644"
           sodipodi:role="line"
           y="0"
           x="0 8.0279999 14.028 20.736 24.084 27.431999 32.712002 38.712002 42.672001 46.02">Explicaţii</tspan>
      </text>
    </g>
    <g
       id="g2648"
       transform="matrix(0.35277777,0,0,-0.35277777,-101.61774,184.93045)" />
    <g
       id="g2650"
       transform="matrix(0.35277777,0,0,-0.35277777,-101.61774,184.93045)">
      <path
         inkscape:connector-curvature="0"
         id="path2652"
         style="fill:#000000;fill-opacity:1;fill-rule:nonzero;stroke:none"
         d="m 56.64,532.56 h 0.48 v 0.48 h -0.48 z" />
    </g>
    <g
       id="g2654"
       transform="matrix(0.35277777,0,0,-0.35277777,-101.61774,184.93045)">
      <path
         inkscape:connector-curvature="0"
         id="path2656"
         style="fill:#000000;fill-opacity:1;fill-rule:nonzero;stroke:none"
         d="m 57.12,532.56 h 477 v 0.48 h -477 z" />
    </g>
    <g
       id="g2658"
       transform="matrix(0.35277777,0,0,-0.35277777,-101.61774,184.93045)">
      <path
         inkscape:connector-curvature="0"
         id="path2660"
         style="fill:#000000;fill-opacity:1;fill-rule:nonzero;stroke:none"
         d="m 534.12,532.56 h 0.48 v 0.48 h -0.48 z" />
    </g>
    <g
       id="g2662"
       transform="matrix(0.35277777,0,0,-0.35277777,-101.61774,184.93045)">
      <path
         inkscape:connector-curvature="0"
         id="path2664"
         style="fill:#000000;fill-opacity:1;fill-rule:nonzero;stroke:none"
         d="m 56.64,517.32 h 0.48 v 15.24 h -0.48 z" />
    </g>
    <g
       id="g2666"
       transform="matrix(0.35277777,0,0,-0.35277777,-101.61774,184.93045)">
      <path
         inkscape:connector-curvature="0"
         id="path2668"
         style="fill:#000000;fill-opacity:1;fill-rule:nonzero;stroke:none"
         d="m 534.12,517.32 h 0.48 v 15.24 h -0.48 z" />
    </g>
    <g
       id="g2670"
       transform="matrix(0.35277777,0,0,-0.35277777,-101.61774,184.93045)">
      <text
         id="text2674"
         style="font-variant:normal;font-weight:normal;font-size:12px;font-family:'Times New Roman';-inkscape-font-specification:TimesNewRomanPSMT;writing-mode:lr-tb;fill:#000000;fill-opacity:1;fill-rule:nonzero;stroke:none"
         transform="matrix(1,0,0,-1,62.04,505.92)">
        <tspan
           id="tspan2672"
           sodipodi:role="line"
           y="0"
           x="0 6.7080002 12.708 18.708 22.056 25.056 31.056 37.056 40.056 46.056 50.015999 56.015999 62.015999 68.015999 72.683998 77.963997 80.963997 84.311996 90.311996 93.311996 99.311996 104.592 109.98 115.26 118.26 124.26 129.53999 132.53999 138.53999 143.82001 147.168 152.448 155.448 160.116 163.464 166.464 172.464 175.464 180.744 186.744 192.744 198.744 202.70399 206.052 209.052 213.72 219.108 224.388 230.388 235.668 239.136 244.416 247.416 253.416 258.69601 264.69601 268.04401 272.004 278.004 281.004 286.284 289.63199 292.98001 298.26001 304.26001 307.608">Sunt 10 produse în baza de date şi 4 coduri scanate pentru client.</tspan>
      </text>
    </g>
    <g
       id="g2676"
       transform="matrix(0.35277777,0,0,-0.35277777,-101.61774,184.93045)" />
    <g
       id="g2678"
       transform="matrix(0.35277777,0,0,-0.35277777,-101.61774,184.93045)">
      <text
         id="text2682"
         style="font-variant:normal;font-weight:normal;font-size:12px;font-family:'Times New Roman';-inkscape-font-specification:TimesNewRomanPSMT;writing-mode:lr-tb;fill:#000000;fill-opacity:1;fill-rule:nonzero;stroke:none"
         transform="matrix(1,0,0,-1,62.04,490.8)">
        <tspan
           id="tspan2680"
           sodipodi:role="line"
           y="0"
           x="0 6.7080002 10.668 14.016 23.364 29.364 32.712002 37.259998 42.540001 48.540001 54.540001 59.088001 63.756001 69.036003 74.316002 80.316002 85.596001 88.944 93.491997 97.452003 103.452 109.452 113.412 117.372 123.372 129.37199 135.37199 141.37199 145.332 149.88 155.16 159.828 163.17599 168.45599 173.004 179.004 185.004 189.552 195.552 199.51199 205.51199 211.51199 217.51199 222.17999 226.728 232.728 238.008 242.556 248.556 254.556 260.556 265.104 271.104 276.384 280.93201 288.95999 297.60001 306.23999 310.78799 316.06799 321.34799 325.30801 330.58801 335.13599 340.41599 345.08401 348.43201 353.71201 358.26001 362.92801 368.20801 373.48801 379.48801 384.76801 388.116 392.664 397.332 400.67999 405.228 410.508 415.056 421.056 427.056 433.056 438.336 442.884 448.884 454.164 458.12399 463.40399 466.51199">Primul cod scanat (98ff65d4) este un produs de 400 de RON care este scanat şi a doua oară,</tspan>
      </text>
    </g>
    <g
       id="g2684"
       transform="matrix(0.35277777,0,0,-0.35277777,-101.61774,184.93045)">
      <text
         id="text2688"
         style="font-variant:normal;font-weight:normal;font-size:12px;font-family:'Times New Roman';-inkscape-font-specification:TimesNewRomanPSMT;writing-mode:lr-tb;fill:#000000;fill-opacity:1;fill-rule:nonzero;stroke:none"
         transform="matrix(1,0,0,-1,62.04,475.56)">
        <tspan
           id="tspan2686"
           sodipodi:role="line"
           y="0"
           x="0 6 12 17.280001 22.559999 28.559999 34.560001 38.748001 43.416 49.416 58.764 64.043999 68.232002 71.580002 77.580002">ducând suma tot</tspan>
      </text>
    </g>
    <g
       id="g2690"
       transform="matrix(0.35277777,0,0,-0.35277777,-101.61774,184.93045)">
      <text
         id="text2694"
         style="font-variant:normal;font-weight:normal;font-size:12px;font-family:'Times New Roman';-inkscape-font-specification:TimesNewRomanPSMT;writing-mode:lr-tb;fill:#000000;fill-opacity:1;fill-rule:nonzero;stroke:none"
         transform="matrix(1,0,0,-1,143.04,475.56)">
        <tspan
           id="tspan2692"
           sodipodi:role="line"
           y="0"
           x="0 5.2800002 8.6280003 14.016 18.204 21.552 26.832001 31.02 37.127998 43.127998 49.127998 53.316002 61.344002 69.984001 78.624001 81.624001 85.811996 92.519997 97.800003 101.988 106.656 112.044 117.324 123.324 128.604 133.884 139.272 144.552 148.86 154.248 160.248 166.248 169.59599 173.784 179.784 185.784 189.972 195.252 201.252 207.252 211.44 217.44 222.828 227.01601 230.976 236.256 242.256 248.364 253.644 258.92401 262.884 266.23199 270.42001 276.52802 281.80801 285.996 291.996 297.996 307.95599 312.14401 316.81201 320.16 324.34799 329.73599 335.73599 341.73599 345.08401 349.272 352.62 358.62 363.89999 369.17999 373.36801 379.36801 385.47601">ală la 800 RON. Se scanează apoi un cod de reduceri de 10% şi apoi încă un</tspan>
      </text>
    </g>
    <g
       id="g2696"
       transform="matrix(0.35277777,0,0,-0.35277777,-101.61774,184.93045)">
      <text
         id="text2700"
         style="font-variant:normal;font-weight:normal;font-size:12px;font-family:'Times New Roman';-inkscape-font-specification:TimesNewRomanPSMT;writing-mode:lr-tb;fill:#000000;fill-opacity:1;fill-rule:nonzero;stroke:none"
         transform="matrix(1,0,0,-1,62.04,460.44)">
        <tspan
           id="tspan2698"
           sodipodi:role="line"
           y="0"
           x="0 6 9.96 15.96 21.959999 27.959999 32.627998 36.335999 42.335999 47.616001 51.324001 57.324001 63.324001 69.323997 75.323997 78.323997 84.323997 90.431999 94.139999 102.168 110.808 119.448 122.556 126.264 130.93201 136.93201 146.28 151.56 155.26801 158.616 164.616 167.964 173.244 176.592 181.87199 185.58 189.53999 192.888 196.23599 202.23599 208.23599 211.944 218.052 223.332 228.612 231.96001 235.668 241.776 247.056 250.76401 256.76401 262.76401 268.76401 274.76401 277.76401 283.76401 289.76401 293.47198 301.5 310.14001 318.78 322.48801 325.95599 331.23599 334.944 340.332 345.612 349.57199 354.95999 358.668 363.45599 368.73599 372.444 377.724 383.724 387.07199 390.42001 395.70001 401.08801 404.79599 408.75601 414.03601 420.03601 426.14401 431.42401 436.81201 440.772 446.052 451.44 455.14801 461.14801 466.42801">produs de 1423.76 RON, suma totală fiind deci de 2223.76 RON la care se aplică reducerea de</tspan>
      </text>
    </g>
    <g
       id="g2702"
       transform="matrix(0.35277777,0,0,-0.35277777,-101.61774,184.93045)">
      <text
         id="text2706"
         style="font-variant:normal;font-weight:normal;font-size:12px;font-family:'Times New Roman';-inkscape-font-specification:TimesNewRomanPSMT;writing-mode:lr-tb;fill:#000000;fill-opacity:1;fill-rule:nonzero;stroke:none"
         transform="matrix(1,0,0,-1,62.04,445.2)">
        <tspan
           id="tspan2704"
           sodipodi:role="line"
           y="0"
           x="0 6 12 21.959999 24.959999 29.628 32.976002 35.976002 41.976002 47.256001 52.535999 55.883999 58.883999 62.844002 68.124001 73.512001 79.512001 82.860001 86.208 91.487999 94.835999 100.836 104.184 107.184 112.464 117.132 120.48 125.76 128.75999 134.75999 140.03999 143.03999 149.03999 155.03999 161.03999 167.03999 170.03999 176.03999 182.03999">10% şi deci rezultatul este de 2001.38.</tspan>
      </text>
    </g>
    <g
       id="g2708"
       transform="matrix(0.35277777,0,0,-0.35277777,-101.61774,184.93045)" />
    <g
       id="g2710"
       transform="matrix(0.35277777,0,0,-0.35277777,-101.61774,184.93045)">
      <path
         inkscape:connector-curvature="0"
         id="path2712"
         style="fill:#000000;fill-opacity:1;fill-rule:nonzero;stroke:none"
         d="m 56.64,516.84 h 0.48 v 0.48 h -0.48 z" />
    </g>
    <g
       id="g2714"
       transform="matrix(0.35277777,0,0,-0.35277777,-101.61774,184.93045)">
      <path
         inkscape:connector-curvature="0"
         id="path2716"
         style="fill:#000000;fill-opacity:1;fill-rule:nonzero;stroke:none"
         d="m 57.12,516.84 h 477 v 0.48 h -477 z" />
    </g>
    <g
       id="g2718"
       transform="matrix(0.35277777,0,0,-0.35277777,-101.61774,184.93045)">
      <path
         inkscape:connector-curvature="0"
         id="path2720"
         style="fill:#000000;fill-opacity:1;fill-rule:nonzero;stroke:none"
         d="m 534.12,516.84 h 0.48 v 0.48 h -0.48 z" />
    </g>
    <g
       id="g2722"
       transform="matrix(0.35277777,0,0,-0.35277777,-101.61774,184.93045)">
      <path
         inkscape:connector-curvature="0"
         id="path2724"
         style="fill:#000000;fill-opacity:1;fill-rule:nonzero;stroke:none"
         d="m 56.64,441 h 0.48 v 75.84 h -0.48 z" />
    </g>
    <g
       id="g2726"
       transform="matrix(0.35277777,0,0,-0.35277777,-101.61774,184.93045)">
      <path
         inkscape:connector-curvature="0"
         id="path2728"
         style="fill:#000000;fill-opacity:1;fill-rule:nonzero;stroke:none"
         d="m 56.64,440.52 h 0.48 V 441 h -0.48 z" />
    </g>
    <g
       id="g2730"
       transform="matrix(0.35277777,0,0,-0.35277777,-101.61774,184.93045)">
      <path
         inkscape:connector-curvature="0"
         id="path2732"
         style="fill:#000000;fill-opacity:1;fill-rule:nonzero;stroke:none"
         d="m 56.64,440.52 h 0.48 V 441 h -0.48 z" />
    </g>
    <g
       id="g2734"
       transform="matrix(0.35277777,0,0,-0.35277777,-101.61774,184.93045)">
      <path
         inkscape:connector-curvature="0"
         id="path2736"
         style="fill:#000000;fill-opacity:1;fill-rule:nonzero;stroke:none"
         d="m 57.12,440.52 h 477 V 441 h -477 z" />
    </g>
    <g
       id="g2738"
       transform="matrix(0.35277777,0,0,-0.35277777,-101.61774,184.93045)">
      <path
         inkscape:connector-curvature="0"
         id="path2740"
         style="fill:#000000;fill-opacity:1;fill-rule:nonzero;stroke:none"
         d="m 534.12,441 h 0.48 v 75.84 h -0.48 z" />
    </g>
    <g
       id="g2742"
       transform="matrix(0.35277777,0,0,-0.35277777,-101.61774,184.93045)">
      <path
         inkscape:connector-curvature="0"
         id="path2744"
         style="fill:#000000;fill-opacity:1;fill-rule:nonzero;stroke:none"
         d="m 534.12,440.52 h 0.48 V 441 h -0.48 z" />
    </g>
    <g
       id="g2746"
       transform="matrix(0.35277777,0,0,-0.35277777,-101.61774,184.93045)">
      <path
         inkscape:connector-curvature="0"
         id="path2748"
         style="fill:#000000;fill-opacity:1;fill-rule:nonzero;stroke:none"
         d="m 534.12,440.52 h 0.48 V 441 h -0.48 z" />
    </g>
    <g
       id="g2756"
       transform="matrix(0.35277777,0,0,-0.35277777,-101.61774,184.93045)" />
    <g
       id="g2758"
       transform="matrix(0.35277777,0,0,-0.35277777,-101.61774,184.93045)" />
    <g
       id="g2760"
       transform="matrix(0.35277777,0,0,-0.35277777,-101.61774,184.93045)" />
    <g
       id="g2762"
       transform="matrix(0.35277777,0,0,-0.35277777,-101.61774,184.93045)" />
    <g
       id="g2764"
       transform="matrix(0.35277777,0,0,-0.35277777,-101.61774,184.93045)" />
  </g>
</svg>
